<svg width="30" height="30" viewBox="0 0 30 30" fill="none" xmlns="http://www.w3.org/2000/svg">
<path d="M25 13.75H5C4.25 13.75 3.75 14.25 3.75 15C3.75 15.75 4.25 16.25 5 16.25H25C25.75 16.25 26.25 15.75 26.25 15C26.25 14.25 25.75 13.75 25 13.75ZM5 10H25C25.75 10 26.25 9.5 26.25 8.75C26.25 8 25.75 7.5 25 7.5H5C4.25 7.5 3.75 8 3.75 8.75C3.75 9.5 4.25 10 5 10ZM25 20H5C4.25 20 3.75 20.5 3.75 21.25C3.75 22 4.25 22.5 5 22.5H25C25.75 22.5 26.25 22 26.25 21.25C26.25 20.5 25.75 20 25 20Z" fill="#FF537C"/>
</svg>
