<svg width="30" height="30" viewBox="0 0 30 30" fill="none" xmlns="http://www.w3.org/2000/svg">
<path d="M27.1375 9.1125C27.0213 8.99534 26.8831 8.90235 26.7308 8.83889C26.5784 8.77543 26.4151 8.74275 26.25 8.74275C26.085 8.74275 25.9216 8.77543 25.7693 8.83889C25.617 8.90235 25.4788 8.99534 25.3625 9.1125L17.5 16.9875L12.1375 11.6125C12.0213 11.4953 11.8831 11.4023 11.7308 11.3389C11.5784 11.2754 11.4151 11.2428 11.25 11.2428C11.085 11.2428 10.9216 11.2754 10.7693 11.3389C10.617 11.4023 10.4787 11.4953 10.3625 11.6125L2.86255 19.1125C2.74539 19.2287 2.65239 19.367 2.58893 19.5193C2.52547 19.6716 2.4928 19.835 2.4928 20C2.4928 20.165 2.52547 20.3284 2.58893 20.4807C2.65239 20.633 2.74539 20.7713 2.86255 20.8875C2.97875 21.0047 3.117 21.0977 3.26933 21.1611C3.42165 21.2246 3.58503 21.2572 3.75005 21.2572C3.91506 21.2572 4.07844 21.2246 4.23077 21.1611C4.38309 21.0977 4.52134 21.0047 4.63755 20.8875L11.25 14.2625L16.6125 19.6375C16.7287 19.7547 16.867 19.8477 17.0193 19.9111C17.1716 19.9746 17.335 20.0072 17.5 20.0072C17.6651 20.0072 17.8284 19.9746 17.9808 19.9111C18.1331 19.8477 18.2713 19.7547 18.3875 19.6375L27.1375 10.8875C27.2547 10.7713 27.3477 10.633 27.4112 10.4807C27.4746 10.3284 27.5073 10.165 27.5073 10C27.5073 9.83499 27.4746 9.6716 27.4112 9.51928C27.3477 9.36695 27.2547 9.2287 27.1375 9.1125Z" fill="black"/>
<path d="M27.1375 9.1125C27.0213 8.99534 26.8831 8.90235 26.7308 8.83889C26.5784 8.77543 26.4151 8.74275 26.25 8.74275C26.085 8.74275 25.9216 8.77543 25.7693 8.83889C25.617 8.90235 25.4788 8.99534 25.3625 9.1125L17.5 16.9875L12.1375 11.6125C12.0213 11.4953 11.8831 11.4023 11.7308 11.3389C11.5784 11.2754 11.4151 11.2428 11.25 11.2428C11.085 11.2428 10.9216 11.2754 10.7693 11.3389C10.617 11.4023 10.4787 11.4953 10.3625 11.6125L2.86255 19.1125C2.74539 19.2287 2.65239 19.367 2.58893 19.5193C2.52547 19.6716 2.4928 19.835 2.4928 20C2.4928 20.165 2.52547 20.3284 2.58893 20.4807C2.65239 20.633 2.74539 20.7713 2.86255 20.8875C2.97875 21.0047 3.117 21.0977 3.26933 21.1611C3.42165 21.2246 3.58503 21.2572 3.75005 21.2572C3.91506 21.2572 4.07844 21.2246 4.23077 21.1611C4.38309 21.0977 4.52134 21.0047 4.63755 20.8875L11.25 14.2625L16.6125 19.6375C16.7287 19.7547 16.867 19.8477 17.0193 19.9111C17.1716 19.9746 17.335 20.0072 17.5 20.0072C17.6651 20.0072 17.8284 19.9746 17.9808 19.9111C18.1331 19.8477 18.2713 19.7547 18.3875 19.6375L27.1375 10.8875C27.2547 10.7713 27.3477 10.633 27.4112 10.4807C27.4746 10.3284 27.5073 10.165 27.5073 10C27.5073 9.83499 27.4746 9.6716 27.4112 9.51928C27.3477 9.36695 27.2547 9.2287 27.1375 9.1125Z" fill="#FF537C"/>
</svg>
