<svg width="30" height="30" viewBox="0 0 30 30" fill="none" xmlns="http://www.w3.org/2000/svg">
<path d="M27.125 3.575C26.9798 3.45753 26.8101 3.3741 26.6284 3.33083C26.4467 3.28757 26.2576 3.28558 26.075 3.325C25.5743 3.42887 25.0576 3.42922 24.5567 3.32603C24.0559 3.22285 23.5814 3.01832 23.1625 2.725C22.952 2.57708 22.701 2.4977 22.4437 2.4977C22.1865 2.4977 21.9355 2.57708 21.725 2.725C21.3061 3.01832 20.8316 3.22285 20.3307 3.32603C19.8299 3.42922 19.3132 3.42887 18.8125 3.325C18.6299 3.28558 18.4408 3.28757 18.2591 3.33083C18.0774 3.3741 17.9077 3.45753 17.7625 3.575C17.6191 3.69132 17.5032 3.83796 17.4233 4.00438C17.3433 4.1708 17.3012 4.35287 17.3 4.5375V8.75C17.3022 9.6551 17.5198 10.5467 17.935 11.3509C18.3502 12.1552 18.9509 12.849 19.6875 13.375L21.7125 14.825C21.9254 14.9786 22.1812 15.0612 22.4437 15.0612C22.7062 15.0612 22.9621 14.9786 23.175 14.825L25.2 13.375C25.9366 12.849 26.5373 12.1552 26.9525 11.3509C27.3676 10.5467 27.5853 9.6551 27.5875 8.75V4.5375C27.5863 4.35287 27.5442 4.1708 27.4642 4.00438C27.3842 3.83796 27.2684 3.69132 27.125 3.575ZM25.0875 8.75C25.0707 9.24127 24.9413 9.72212 24.7095 10.1555C24.4776 10.589 24.1493 10.9634 23.75 11.25L22.5 12.175L21.1375 11.25C20.7381 10.9634 20.4099 10.589 20.178 10.1555C19.9461 9.72212 19.8168 9.24127 19.8 8.75V5.9C20.7393 5.86988 21.6607 5.63526 22.5 5.2125C23.3196 5.62839 24.2192 5.86288 25.1375 5.9L25.0875 8.75ZM23.6625 17.5C23.3426 17.4203 23.0043 17.4701 22.721 17.6387C22.4377 17.8072 22.2325 18.0809 22.15 18.4C21.6715 20.2878 20.5769 21.9619 19.0395 23.1574C17.5022 24.3528 15.6099 25.0013 13.6625 25H6.68748L7.49998 24.2125C7.71795 23.9807 7.83931 23.6745 7.83931 23.3563C7.83931 23.0381 7.71795 22.7318 7.49998 22.5C6.25603 21.2812 5.40406 19.719 5.05312 18.0132C4.70218 16.3074 4.86824 14.5357 5.53004 12.9248C6.19183 11.3139 7.31927 9.93719 8.76803 8.97079C10.2168 8.00438 11.921 7.49227 13.6625 7.5C13.994 7.5 14.3119 7.36831 14.5464 7.13389C14.7808 6.89947 14.9125 6.58152 14.9125 6.25C14.9125 5.91848 14.7808 5.60054 14.5464 5.36612C14.3119 5.1317 13.994 5 13.6625 5C11.5468 5.00696 9.47599 5.61036 7.68772 6.74093C5.89945 7.8715 4.46622 9.48342 3.55257 11.3916C2.63892 13.2999 2.28187 15.4271 2.52241 17.529C2.76296 19.631 3.59135 21.6225 4.91248 23.275L2.78748 25.3625C2.61196 25.5366 2.49199 25.7588 2.44276 26.0011C2.39353 26.2434 2.41724 26.4948 2.5109 26.7236C2.60456 26.9524 2.76395 27.1482 2.96893 27.2864C3.17391 27.4246 3.41527 27.499 3.66248 27.5H13.6625C16.1578 27.5016 18.5828 26.6736 20.556 25.1461C22.5293 23.6187 23.9387 21.4786 24.5625 19.0625C24.6095 18.9008 24.6234 18.7313 24.6033 18.564C24.5831 18.3968 24.5294 18.2354 24.4454 18.0895C24.3613 17.9436 24.2487 17.8161 24.1141 17.7148C23.9796 17.6135 23.826 17.5405 23.6625 17.5Z" fill="black"/>
<path d="M27.125 3.575C26.9798 3.45753 26.8101 3.3741 26.6284 3.33083C26.4467 3.28757 26.2576 3.28558 26.075 3.325C25.5743 3.42887 25.0576 3.42922 24.5567 3.32603C24.0559 3.22285 23.5814 3.01832 23.1625 2.725C22.952 2.57708 22.701 2.4977 22.4437 2.4977C22.1865 2.4977 21.9355 2.57708 21.725 2.725C21.3061 3.01832 20.8316 3.22285 20.3307 3.32603C19.8299 3.42922 19.3132 3.42887 18.8125 3.325C18.6299 3.28558 18.4408 3.28757 18.2591 3.33083C18.0774 3.3741 17.9077 3.45753 17.7625 3.575C17.6191 3.69132 17.5032 3.83796 17.4233 4.00438C17.3433 4.1708 17.3012 4.35287 17.3 4.5375V8.75C17.3022 9.6551 17.5198 10.5467 17.935 11.3509C18.3502 12.1552 18.9509 12.849 19.6875 13.375L21.7125 14.825C21.9254 14.9786 22.1812 15.0612 22.4437 15.0612C22.7062 15.0612 22.9621 14.9786 23.175 14.825L25.2 13.375C25.9366 12.849 26.5373 12.1552 26.9525 11.3509C27.3676 10.5467 27.5853 9.6551 27.5875 8.75V4.5375C27.5863 4.35287 27.5442 4.1708 27.4642 4.00438C27.3842 3.83796 27.2684 3.69132 27.125 3.575ZM25.0875 8.75C25.0707 9.24127 24.9413 9.72212 24.7095 10.1555C24.4776 10.589 24.1493 10.9634 23.75 11.25L22.5 12.175L21.1375 11.25C20.7381 10.9634 20.4099 10.589 20.178 10.1555C19.9461 9.72212 19.8168 9.24127 19.8 8.75V5.9C20.7393 5.86988 21.6607 5.63526 22.5 5.2125C23.3196 5.62839 24.2192 5.86288 25.1375 5.9L25.0875 8.75ZM23.6625 17.5C23.3426 17.4203 23.0043 17.4701 22.721 17.6387C22.4377 17.8072 22.2325 18.0809 22.15 18.4C21.6715 20.2878 20.5769 21.9619 19.0395 23.1574C17.5022 24.3528 15.6099 25.0013 13.6625 25H6.68748L7.49998 24.2125C7.71795 23.9807 7.83931 23.6745 7.83931 23.3563C7.83931 23.0381 7.71795 22.7318 7.49998 22.5C6.25603 21.2812 5.40406 19.719 5.05312 18.0132C4.70218 16.3074 4.86824 14.5357 5.53004 12.9248C6.19183 11.3139 7.31927 9.93719 8.76803 8.97079C10.2168 8.00438 11.921 7.49227 13.6625 7.5C13.994 7.5 14.3119 7.36831 14.5464 7.13389C14.7808 6.89947 14.9125 6.58152 14.9125 6.25C14.9125 5.91848 14.7808 5.60054 14.5464 5.36612C14.3119 5.1317 13.994 5 13.6625 5C11.5468 5.00696 9.47599 5.61036 7.68772 6.74093C5.89945 7.8715 4.46622 9.48342 3.55257 11.3916C2.63892 13.2999 2.28187 15.4271 2.52241 17.529C2.76296 19.631 3.59135 21.6225 4.91248 23.275L2.78748 25.3625C2.61196 25.5366 2.49199 25.7588 2.44276 26.0011C2.39353 26.2434 2.41724 26.4948 2.5109 26.7236C2.60456 26.9524 2.76395 27.1482 2.96893 27.2864C3.17391 27.4246 3.41527 27.499 3.66248 27.5H13.6625C16.1578 27.5016 18.5828 26.6736 20.556 25.1461C22.5293 23.6187 23.9387 21.4786 24.5625 19.0625C24.6095 18.9008 24.6234 18.7313 24.6033 18.564C24.5831 18.3968 24.5294 18.2354 24.4454 18.0895C24.3613 17.9436 24.2487 17.8161 24.1141 17.7148C23.9796 17.6135 23.826 17.5405 23.6625 17.5Z" fill="#FF537C"/>
</svg>
