<svg width="30" height="30" viewBox="0 0 30 30" fill="none" xmlns="http://www.w3.org/2000/svg">
<path d="M12.1375 7.8625C12.0213 7.74534 11.8831 7.65235 11.7308 7.58889C11.5784 7.52543 11.4151 7.49275 11.25 7.49275C11.085 7.49275 10.9216 7.52543 10.7693 7.58889C10.617 7.65235 10.4787 7.74534 10.3625 7.8625L4.11255 14.1125C3.99539 14.2287 3.90239 14.367 3.83893 14.5193C3.77547 14.6716 3.7428 14.835 3.7428 15C3.7428 15.165 3.77547 15.3284 3.83893 15.4807C3.90239 15.633 3.99539 15.7713 4.11255 15.8875L10.3625 22.1375C10.4787 22.2547 10.617 22.3477 10.7693 22.4111C10.9216 22.4746 11.085 22.5072 11.25 22.5072C11.4151 22.5072 11.5784 22.4746 11.7308 22.4111C11.8831 22.3477 12.0213 22.2547 12.1375 22.1375C12.2547 22.0213 12.3477 21.883 12.4112 21.7307C12.4746 21.5784 12.5073 21.415 12.5073 21.25C12.5073 21.085 12.4746 20.9216 12.4112 20.7693C12.3477 20.617 12.2547 20.4787 12.1375 20.3625L6.76255 15L12.1375 9.6375C12.2547 9.5213 12.3477 9.38305 12.4112 9.23072C12.4746 9.0784 12.5073 8.91501 12.5073 8.75C12.5073 8.58499 12.4746 8.4216 12.4112 8.26928C12.3477 8.11695 12.2547 7.9787 12.1375 7.8625ZM25.8875 14.1125L19.6375 7.8625C19.521 7.74595 19.3826 7.6535 19.2304 7.59043C19.0781 7.52735 18.9149 7.49489 18.75 7.49489C18.4172 7.49489 18.0979 7.62712 17.8625 7.8625C17.746 7.97905 17.6535 8.11741 17.5905 8.26969C17.5274 8.42197 17.4949 8.58518 17.4949 8.75C17.4949 9.08288 17.6272 9.40212 17.8625 9.6375L23.2375 15L17.8625 20.3625C17.7454 20.4787 17.6524 20.617 17.5889 20.7693C17.5255 20.9216 17.4928 21.085 17.4928 21.25C17.4928 21.415 17.5255 21.5784 17.5889 21.7307C17.6524 21.883 17.7454 22.0213 17.8625 22.1375C17.9787 22.2547 18.117 22.3477 18.2693 22.4111C18.4216 22.4746 18.585 22.5072 18.75 22.5072C18.9151 22.5072 19.0784 22.4746 19.2308 22.4111C19.3831 22.3477 19.5213 22.2547 19.6375 22.1375L25.8875 15.8875C26.0047 15.7713 26.0977 15.633 26.1612 15.4807C26.2246 15.3284 26.2573 15.165 26.2573 15C26.2573 14.835 26.2246 14.6716 26.1612 14.5193C26.0977 14.367 26.0047 14.2287 25.8875 14.1125Z" fill="black"/>
<path d="M12.1375 7.8625C12.0213 7.74534 11.8831 7.65235 11.7308 7.58889C11.5784 7.52543 11.4151 7.49275 11.25 7.49275C11.085 7.49275 10.9216 7.52543 10.7693 7.58889C10.617 7.65235 10.4787 7.74534 10.3625 7.8625L4.11255 14.1125C3.99539 14.2287 3.90239 14.367 3.83893 14.5193C3.77547 14.6716 3.7428 14.835 3.7428 15C3.7428 15.165 3.77547 15.3284 3.83893 15.4807C3.90239 15.633 3.99539 15.7713 4.11255 15.8875L10.3625 22.1375C10.4787 22.2547 10.617 22.3477 10.7693 22.4111C10.9216 22.4746 11.085 22.5072 11.25 22.5072C11.4151 22.5072 11.5784 22.4746 11.7308 22.4111C11.8831 22.3477 12.0213 22.2547 12.1375 22.1375C12.2547 22.0213 12.3477 21.883 12.4112 21.7307C12.4746 21.5784 12.5073 21.415 12.5073 21.25C12.5073 21.085 12.4746 20.9216 12.4112 20.7693C12.3477 20.617 12.2547 20.4787 12.1375 20.3625L6.76255 15L12.1375 9.6375C12.2547 9.5213 12.3477 9.38305 12.4112 9.23072C12.4746 9.0784 12.5073 8.91501 12.5073 8.75C12.5073 8.58499 12.4746 8.4216 12.4112 8.26928C12.3477 8.11695 12.2547 7.9787 12.1375 7.8625ZM25.8875 14.1125L19.6375 7.8625C19.521 7.74595 19.3826 7.6535 19.2304 7.59043C19.0781 7.52735 18.9149 7.49489 18.75 7.49489C18.4172 7.49489 18.0979 7.62712 17.8625 7.8625C17.746 7.97905 17.6535 8.11741 17.5905 8.26969C17.5274 8.42197 17.4949 8.58518 17.4949 8.75C17.4949 9.08288 17.6272 9.40212 17.8625 9.6375L23.2375 15L17.8625 20.3625C17.7454 20.4787 17.6524 20.617 17.5889 20.7693C17.5255 20.9216 17.4928 21.085 17.4928 21.25C17.4928 21.415 17.5255 21.5784 17.5889 21.7307C17.6524 21.883 17.7454 22.0213 17.8625 22.1375C17.9787 22.2547 18.117 22.3477 18.2693 22.4111C18.4216 22.4746 18.585 22.5072 18.75 22.5072C18.9151 22.5072 19.0784 22.4746 19.2308 22.4111C19.3831 22.3477 19.5213 22.2547 19.6375 22.1375L25.8875 15.8875C26.0047 15.7713 26.0977 15.633 26.1612 15.4807C26.2246 15.3284 26.2573 15.165 26.2573 15C26.2573 14.835 26.2246 14.6716 26.1612 14.5193C26.0977 14.367 26.0047 14.2287 25.8875 14.1125Z" fill="#FF537C"/>
</svg>
