<svg width="25" height="24" viewBox="0 0 25 24" fill="none" xmlns="http://www.w3.org/2000/svg">
<path d="M21.3254 9.32001L7.32536 2.32001C6.77285 2.04502 6.14897 1.94712 5.53879 2.03966C4.92861 2.1322 4.36181 2.41068 3.91569 2.83712C3.46956 3.26357 3.16581 3.81723 3.04585 4.42262C2.92589 5.02801 2.99556 5.65566 3.24535 6.22001L5.64535 11.59C5.69981 11.7198 5.72786 11.8592 5.72786 12C5.72786 12.1408 5.69981 12.2802 5.64535 12.41L3.24535 17.78C3.04205 18.2367 2.95611 18.737 2.99533 19.2354C3.03455 19.7337 3.1977 20.2144 3.46994 20.6337C3.74218 21.053 4.11488 21.3976 4.55418 21.6362C4.99347 21.8748 5.48544 21.9999 5.98535 22C6.45359 21.9953 6.91484 21.886 7.33535 21.68L21.3354 14.68C21.832 14.4302 22.2494 14.0473 22.541 13.5741C22.8327 13.1009 22.9872 12.5559 22.9872 12C22.9872 11.4441 22.8327 10.8992 22.541 10.4259C22.2494 9.9527 21.832 9.56982 21.3354 9.32001H21.3254ZM20.4354 12.89L6.43535 19.89C6.25152 19.9783 6.04509 20.0082 5.84374 19.9759C5.6424 19.9435 5.45576 19.8503 5.30887 19.7089C5.16197 19.5674 5.06184 19.3844 5.02189 19.1844C4.98194 18.9845 5.00408 18.777 5.08535 18.59L7.47535 13.22C7.50629 13.1483 7.53301 13.0748 7.55536 13H14.4454C14.7106 13 14.9649 12.8946 15.1525 12.7071C15.34 12.5196 15.4454 12.2652 15.4454 12C15.4454 11.7348 15.34 11.4804 15.1525 11.2929C14.9649 11.1054 14.7106 11 14.4454 11H7.55536C7.53301 10.9252 7.50629 10.8517 7.47535 10.78L5.08535 5.41001C5.00408 5.22297 4.98194 5.01556 5.02189 4.81558C5.06184 4.6156 5.16197 4.43261 5.30887 4.29115C5.45576 4.1497 5.6424 4.05654 5.84374 4.02416C6.04509 3.99178 6.25152 4.02174 6.43535 4.11001L20.4354 11.11C20.5992 11.1939 20.7366 11.3214 20.8326 11.4785C20.9286 11.6355 20.9794 11.816 20.9794 12C20.9794 12.1841 20.9286 12.3645 20.8326 12.5216C20.7366 12.6786 20.5992 12.8061 20.4354 12.89Z" fill="black"/>
<path d="M21.3254 9.32001L7.32536 2.32001C6.77285 2.04502 6.14897 1.94712 5.53879 2.03966C4.92861 2.1322 4.36181 2.41068 3.91569 2.83712C3.46956 3.26357 3.16581 3.81723 3.04585 4.42262C2.92589 5.02801 2.99556 5.65566 3.24535 6.22001L5.64535 11.59C5.69981 11.7198 5.72786 11.8592 5.72786 12C5.72786 12.1408 5.69981 12.2802 5.64535 12.41L3.24535 17.78C3.04205 18.2367 2.95611 18.737 2.99533 19.2354C3.03455 19.7337 3.1977 20.2144 3.46994 20.6337C3.74218 21.053 4.11488 21.3976 4.55418 21.6362C4.99347 21.8748 5.48544 21.9999 5.98535 22C6.45359 21.9953 6.91484 21.886 7.33535 21.68L21.3354 14.68C21.832 14.4302 22.2494 14.0473 22.541 13.5741C22.8327 13.1009 22.9872 12.5559 22.9872 12C22.9872 11.4441 22.8327 10.8992 22.541 10.4259C22.2494 9.9527 21.832 9.56982 21.3354 9.32001H21.3254ZM20.4354 12.89L6.43535 19.89C6.25152 19.9783 6.04509 20.0082 5.84374 19.9759C5.6424 19.9435 5.45576 19.8503 5.30887 19.7089C5.16197 19.5674 5.06184 19.3844 5.02189 19.1844C4.98194 18.9845 5.00408 18.777 5.08535 18.59L7.47535 13.22C7.50629 13.1483 7.53301 13.0748 7.55536 13H14.4454C14.7106 13 14.9649 12.8946 15.1525 12.7071C15.34 12.5196 15.4454 12.2652 15.4454 12C15.4454 11.7348 15.34 11.4804 15.1525 11.2929C14.9649 11.1054 14.7106 11 14.4454 11H7.55536C7.53301 10.9252 7.50629 10.8517 7.47535 10.78L5.08535 5.41001C5.00408 5.22297 4.98194 5.01556 5.02189 4.81558C5.06184 4.6156 5.16197 4.43261 5.30887 4.29115C5.45576 4.1497 5.6424 4.05654 5.84374 4.02416C6.04509 3.99178 6.25152 4.02174 6.43535 4.11001L20.4354 11.11C20.5992 11.1939 20.7366 11.3214 20.8326 11.4785C20.9286 11.6355 20.9794 11.816 20.9794 12C20.9794 12.1841 20.9286 12.3645 20.8326 12.5216C20.7366 12.6786 20.5992 12.8061 20.4354 12.89Z" fill="#FF537C"/>
</svg>
